<svg xmlns="http://www.w3.org/2000/svg" xmlns:xlink="http://www.w3.org/1999/xlink" version="1.1" width="256" height="256" viewBox="0 0 256 256" xml:space="preserve">

<defs>
</defs>
<g style="stroke: none; stroke-width: 0; stroke-dasharray: none; stroke-linecap: butt; stroke-linejoin: miter; stroke-miterlimit: 10; fill: none; fill-rule: nonzero; opacity: 1;" transform="translate(1.4065934065934016 1.4065934065934016) scale(2.81 2.81)" >
	<path d="M 75.442 30.442 c 0 -17.463 -14.705 -31.492 -32.408 -30.381 C 27.98 1.007 15.697 13.187 14.636 28.234 c -0.746 10.571 3.911 20.093 11.487 26.089 c 4.282 3.388 6.873 8.471 6.873 13.931 v 9.9 c 0 1.538 1.247 2.784 2.784 2.784 h 18.44 c 1.538 0 2.784 -1.247 2.784 -2.784 l 0 -9.902 c 0 -5.364 2.424 -10.47 6.66 -13.761 C 70.831 48.921 75.442 40.221 75.442 30.442 z" style="stroke: none; stroke-width: 1; stroke-dasharray: none; stroke-linecap: butt; stroke-linejoin: miter; stroke-miterlimit: 10; fill: rgb(255,225,129); fill-rule: nonzero; opacity: 1;" transform=" matrix(1 0 0 1 0 0) " stroke-linecap="round" />
	<path d="M 48.986 90 h -7.972 c -2.784 0 -5.041 -2.257 -5.041 -5.041 v -4.021 h 18.054 v 4.021 C 54.027 87.743 51.77 90 48.986 90 z" style="stroke: none; stroke-width: 1; stroke-dasharray: none; stroke-linecap: butt; stroke-linejoin: miter; stroke-miterlimit: 10; fill: rgb(193,191,193); fill-rule: nonzero; opacity: 1;" transform=" matrix(1 0 0 1 0 0) " stroke-linecap="round" />
	<path d="M 32.996 68.979 v 9.174 c 0 1.538 1.247 2.784 2.784 2.784 h 18.44 c 1.538 0 2.784 -1.247 2.784 -2.784 v -9.174 H 32.996 z" style="stroke: none; stroke-width: 1; stroke-dasharray: none; stroke-linecap: butt; stroke-linejoin: miter; stroke-miterlimit: 10; fill: rgb(175,175,175); fill-rule: nonzero; opacity: 1;" transform=" matrix(1 0 0 1 0 0) " stroke-linecap="round" />
	<path d="M 38.923 40.72 c -0.413 1.459 -1.711 2.61 -3.383 2.892 L 30.269 44.5 c -2.777 0.468 -4.794 2.697 -4.794 5.298 v 3.981 c 0.216 0.181 0.426 0.369 0.648 0.544 c 4.282 3.388 6.874 8.471 6.874 13.931 v 0.725 h 24.008 v -0.728 c 0 -5.364 2.424 -10.47 6.66 -13.761 c 0.294 -0.228 0.576 -0.47 0.861 -0.708 v -3.984 c 0 -2.601 -2.017 -4.83 -4.794 -5.298 l -5.271 -0.888 c -1.673 -0.282 -2.97 -1.433 -3.383 -2.892" style="stroke: none; stroke-width: 1; stroke-dasharray: none; stroke-linecap: butt; stroke-linejoin: miter; stroke-miterlimit: 10; fill: rgb(230,236,255); fill-rule: nonzero; opacity: 1;" transform=" matrix(1 0 0 1 0 0) " stroke-linecap="round" />
	<path d="M 55.455 26.073 l -0.391 6.462 c -0.41 4.907 -3.642 9.125 -8.273 10.799 h 0 c -0.579 0.209 -1.185 0.314 -1.791 0.314 c -0.606 0 -1.212 -0.105 -1.791 -0.314 h 0 c -4.631 -1.673 -7.863 -5.892 -8.273 -10.799 h 0 l -0.415 -6.462 v -4.458 c 0 0 19.096 -3.598 19.289 -3.598 c 0.193 0 1.928 4.369 1.928 4.369 L 55.455 26.073 z" style="stroke: none; stroke-width: 1; stroke-dasharray: none; stroke-linecap: butt; stroke-linejoin: miter; stroke-miterlimit: 10; fill: rgb(255,182,159); fill-rule: nonzero; opacity: 1;" transform=" matrix(1 0 0 1 0 0) " stroke-linecap="round" />
	<path d="M 34.52 26.073 c -4.624 -6.881 -2.525 -11.57 4.919 -14.516 c -0.162 -0.68 -1.1 -1.36 -2.579 -2.039 c 6.122 -2.3 13.402 -1.774 16.733 3.605 c 4.563 1.538 5.96 6.645 1.862 12.951 c -0.457 -7.718 -5.467 -7.091 -11.517 -4.559 c -3.059 1.17 -5.714 1.05 -8.218 0.66 C 34.352 21.918 34.419 24.352 34.52 26.073 z" style="stroke: none; stroke-width: 1; stroke-dasharray: none; stroke-linecap: butt; stroke-linejoin: miter; stroke-miterlimit: 10; fill: rgb(73,74,89); fill-rule: nonzero; opacity: 1;" transform=" matrix(1 0 0 1 0 0) " stroke-linecap="round" />
	<path d="M 38.364 56.719 h -3.876 c -0.552 0 -1 -0.447 -1 -1 s 0.448 -1 1 -1 h 3.876 c 0.552 0 1 0.447 1 1 S 38.917 56.719 38.364 56.719 z" style="stroke: none; stroke-width: 1; stroke-dasharray: none; stroke-linecap: butt; stroke-linejoin: miter; stroke-miterlimit: 10; fill: rgb(212,216,232); fill-rule: nonzero; opacity: 1;" transform=" matrix(1 0 0 1 0 0) " stroke-linecap="round" />
	<path d="M 42.277 29.037 H 39.43 c -0.552 0 -1 -0.448 -1 -1 s 0.448 -1 1 -1 h 2.848 c 0.552 0 1 0.448 1 1 S 42.83 29.037 42.277 29.037 z" style="stroke: none; stroke-width: 1; stroke-dasharray: none; stroke-linecap: butt; stroke-linejoin: miter; stroke-miterlimit: 10; fill: rgb(206,152,130); fill-rule: nonzero; opacity: 1;" transform=" matrix(1 0 0 1 0 0) " stroke-linecap="round" />
	<path d="M 50.57 29.037 h -2.848 c -0.553 0 -1 -0.448 -1 -1 s 0.447 -1 1 -1 h 2.848 c 0.553 0 1 0.448 1 1 S 51.123 29.037 50.57 29.037 z" style="stroke: none; stroke-width: 1; stroke-dasharray: none; stroke-linecap: butt; stroke-linejoin: miter; stroke-miterlimit: 10; fill: rgb(206,152,130); fill-rule: nonzero; opacity: 1;" transform=" matrix(1 0 0 1 0 0) " stroke-linecap="round" />
	<path d="M 44.935 38.65 c -1.375 0 -2.728 -0.556 -4.021 -1.667 c -0.419 -0.36 -0.466 -0.992 -0.106 -1.41 c 0.36 -0.419 0.992 -0.465 1.41 -0.106 c 1.854 1.594 3.58 1.588 5.593 -0.023 c 0.431 -0.345 1.062 -0.274 1.405 0.157 c 0.345 0.431 0.274 1.061 -0.157 1.406 C 47.688 38.102 46.3 38.65 44.935 38.65 z" style="stroke: none; stroke-width: 1; stroke-dasharray: none; stroke-linecap: butt; stroke-linejoin: miter; stroke-miterlimit: 10; fill: rgb(206,152,130); fill-rule: nonzero; opacity: 1;" transform=" matrix(1 0 0 1 0 0) " stroke-linecap="round" />
	<path d="M 47.044 43.232 c -0.085 0.033 -0.167 0.071 -0.253 0.102 l 0 0 c -0.579 0.209 -1.185 0.314 -1.791 0.314 s -1.212 -0.105 -1.791 -0.314 l 0 0 c -0.086 -0.031 -0.168 -0.069 -0.253 -0.102 l -1.577 3.453 l 2.015 3.188 l -2.05 19.107 h 7.311 l -2.05 -19.107 l 2.015 -3.188 L 47.044 43.232 z" style="stroke: none; stroke-width: 1; stroke-dasharray: none; stroke-linecap: butt; stroke-linejoin: miter; stroke-miterlimit: 10; fill: rgb(66,148,255); fill-rule: nonzero; opacity: 1;" transform=" matrix(1 0 0 1 0 0) " stroke-linecap="round" />
</g>
</svg>